<svg width="102" height="120" viewBox="0 0 102 120" fill="none" xmlns="http://www.w3.org/2000/svg">
<path d="M95.3148 35.8103C95.4174 35.8161 95.52 35.8432 95.6206 35.8432C96.9038 35.8432 98.158 35.4077 99.1838 34.5852C100.544 33.4974 101.323 31.8716 101.323 30.1277C101.323 27.6426 99.7548 25.5194 97.4516 24.7374V23.2258C97.4516 10.4187 87.0329 0 74.2258 0C64.6509 0 56.0787 5.95355 52.62 14.7213L52.1458 14.6168C50.4464 14.2374 48.6909 14.6458 47.3322 15.7374C45.9716 16.8252 45.1935 18.451 45.1935 20.1948C45.1935 22.68 46.7613 24.8032 49.0645 25.5852V32.9032C49.0645 42.7839 55.2755 51.2206 63.9909 54.569C62.3032 55.3645 60.6967 56.3419 59.2296 57.5168L56.1271 60H42.6096L41.6264 55.4052C42.6096 54.7026 43.258 53.5568 43.258 52.2581H51.7567L50.8006 49.411C49.5967 45.7935 46.4709 43.2368 42.7838 42.6968C42.1277 41.4813 40.86 40.6452 39.3871 40.6452H31.6451C30.2187 40.6452 28.9838 41.429 28.3122 42.5806H23.9032C21.7684 42.5806 20.0322 44.3168 20.0322 46.4516V50.3226C20.0322 52.4574 21.7684 54.1935 23.9032 54.1935H28.3122C28.7148 54.8826 29.3148 55.4381 30.0445 55.7729L31.74 62.5568C30.4916 63.9329 29.7096 65.7406 29.7096 67.7419C29.7096 71.0961 31.8658 73.9297 34.8542 75.0039L36.8922 83.16C37.198 84.389 37.9316 85.409 38.9013 86.1077C37.9606 87.9 37.4516 89.88 37.4516 91.9355V108.927L35.2761 109.653C33.1045 110.377 31.6451 112.401 31.6451 114.691C31.6451 117.619 34.0258 120 36.9542 120H60.6774V119.923C61.2716 119.865 61.8638 119.777 62.4464 119.644L84.9716 114.445L86.9768 117.455C88.0393 119.048 89.818 120 91.7342 120C94.8871 120 97.4516 117.435 97.4516 114.283V102.581C97.4516 99.3793 94.8464 96.7742 91.6451 96.7742H85.7884C87.0174 95.1523 87.7742 93.1548 87.7742 90.9677V60H87.7451C87.6387 57.0581 85.949 54.5419 83.4987 53.2316C89.849 49.7187 94.3703 43.3161 95.3148 35.8103ZM74.2258 3.87097C84.898 3.87097 93.5806 12.5535 93.5806 23.2258V23.8239L56.458 15.5748C59.4793 8.58 66.4548 3.87097 74.2258 3.87097ZM52.9355 32.9032V26.4987L68.4193 29.94V36.7742H72.2903C73.3587 36.7742 74.2258 37.6413 74.2258 38.7097C74.2258 39.7781 73.3587 40.6452 72.2903 40.6452H68.4193V51.8671C59.5955 50.069 52.9355 42.2497 52.9355 32.9032ZM62.8858 59.6342C64.38 58.6161 66.0019 57.8071 67.7051 57.2245L62.8858 59.6342ZM35.1851 60.3774L34.1226 56.129H37.8232L38.6516 60H37.4516C36.658 60 35.9071 60.1548 35.1851 60.3774ZM43.258 48.3871V46.7981C44.2219 47.1213 45.1006 47.6497 45.7916 48.3871H43.258ZM31.6451 44.5161H39.3871L39.3909 52.2581H31.6451V44.5161ZM23.9032 46.4516H27.7742V50.3226H23.9032V46.4516ZM37.4516 63.871H61.4167L65.2877 71.6129H37.4516C35.3167 71.6129 33.5806 69.8768 33.5806 67.7419C33.5806 65.6071 35.3167 63.871 37.4516 63.871ZM47.3187 98.6284C45.929 100.848 45.1935 103.411 45.1935 106.032C45.1935 106.835 45.2767 107.619 45.4084 108.387H41.3226V91.9355C41.3226 90.1606 41.8587 88.4555 42.8593 87.0039C44.6071 86.6864 46.0548 85.5019 46.7245 83.9032C49.3606 82.831 52.4806 83.1387 54.869 84.7219V86.5432L47.3187 98.6284ZM46.8561 79.8116L45.929 75.4839H54.8709V80.3574C52.3432 79.3316 49.4942 79.1516 46.8561 79.8116ZM41.969 75.4839L43.2271 81.3503C43.2484 81.4452 43.258 81.5419 43.258 81.6368V81.9019C43.258 82.6316 42.6638 83.2258 41.9322 83.2258C41.3245 83.2258 40.7942 82.8116 40.6451 82.2213L38.9632 75.4839H41.969ZM58.7419 75.4839H68.9206L83.6438 67.3026C83.7348 67.2523 83.8142 67.1884 83.9032 67.1342V85.1613H58.7419V75.4839ZM36.9542 116.129C36.1606 116.129 35.5161 115.485 35.5161 114.691C35.5161 114.072 35.9109 113.522 36.5013 113.325L39.7006 112.258H46.68C47.4096 113.712 48.3832 115.018 49.5561 116.129H36.9542ZM93.5806 102.581V114.283C93.5806 115.301 92.7522 116.129 91.7342 116.129C91.1148 116.129 90.5419 115.823 90.1974 115.306L87.7742 111.674V100.645H91.6451C92.7135 100.645 93.5806 101.512 93.5806 102.581ZM70.3548 100.645H78.0967H83.9032V110.717L61.5774 115.87C60.8322 116.042 60.0696 116.129 59.1619 116.129C53.5935 116.129 49.0645 111.6 49.0645 106.032C49.0645 104.137 49.5948 102.285 50.5993 100.68L57.8787 89.0323H83.9032V90.9677C83.9032 94.169 81.298 96.7742 78.0967 96.7742H70.3548H62.6129V100.645H70.3548ZM81.7664 63.9194L69.2477 70.8735L65.2103 62.7987L77.6709 56.5664C78.2496 56.28 78.8942 56.129 79.5348 56.129H79.7458C82.0393 56.129 83.9032 57.9929 83.9032 60.2845C83.9032 61.7961 83.0845 63.1858 81.7664 63.9194ZM72.2903 52.2581V44.5161C75.4916 44.5161 78.0967 41.911 78.0967 38.7097C78.0967 35.5084 75.4916 32.9032 72.2903 32.9032V30.8013L83.4755 33.2864L84.3155 29.5065L50.5084 21.9929C49.6703 21.809 49.0645 21.0523 49.0645 20.1948C49.0645 19.6335 49.3161 19.1071 49.7535 18.7568C50.1909 18.4065 50.758 18.2729 51.3077 18.3968L96.0077 28.3297C96.8458 28.5135 97.4516 29.2703 97.4516 30.1277C97.4516 30.689 97.2 31.2155 96.7626 31.5658C96.3251 31.9161 95.7561 32.0477 95.2084 31.9258L88.4071 30.4161L87.5671 34.1961L91.5135 35.0729C90.4316 44.7252 82.2271 52.2581 72.2903 52.2581Z" fill="#333333"/>
<path d="M25.2638 55.6703L21.9677 60.4568L18.1451 54.9058L11.4096 54.4084L14.3438 48.3871L11.4096 42.3658L18.1451 41.8684L21.9677 36.3174L25.2638 41.1058L28.4496 38.909L23.9032 32.3013V0H0.677368V120H23.9032V64.4729L28.4516 57.8671L25.2638 55.6703ZM4.54834 116.129V3.87097H20.0322V32.3013L16.0103 38.1445L5.42898 38.9245L10.0374 48.3871L5.42898 57.8497L16.0103 58.6297L20.0322 64.4729V116.129H4.54834Z" fill="#333333"/>
<path d="M60.6774 30.9677H56.8064V34.8387H60.6774V30.9677Z" fill="#333333"/>
<path d="M12.2903 7.74194H8.41931V23.2258H12.2903V7.74194Z" fill="#333333"/>
<path d="M12.2903 27.0968H8.41931V30.9678H12.2903V27.0968Z" fill="#333333"/>
<path d="M16.1613 65.8065H12.2903V81.2903H16.1613V65.8065Z" fill="#333333"/>
<path d="M12.2903 100.645H8.41931V112.258H12.2903V100.645Z" fill="#333333"/>
</svg>
