<svg viewBox="0 0 30 30" fill="none" xmlns="http://www.w3.org/2000/svg">
<path fill-rule="evenodd" clip-rule="evenodd" d="M27.2143 1H23.7143C19.8483 1 16.7143 4.13401 16.7143 8V13.2857H20.2143C24.0803 13.2857 27.2143 10.1517 27.2143 6.28571V1ZM23.7143 0C19.296 0 15.7143 3.58173 15.7143 8V13.2857V14.2857H16.7143H20.2143C24.6326 14.2857 28.2143 10.704 28.2143 6.28571V1V0H27.2143H23.7143ZM1 2.78577H6.28571C10.1517 2.78577 13.2857 5.91977 13.2857 9.78577V13.2858H8C4.13401 13.2858 1 10.1518 1 6.28577V2.78577ZM0 1.78577H1H6.28571C10.704 1.78577 14.2857 5.36749 14.2857 9.78577V13.2858V14.2858H13.2857H8C3.58173 14.2858 0 10.704 0 6.28577V2.78577V1.78577ZM16.7143 16.7142H22C25.866 16.7142 29 19.8482 29 23.7142V27.2142H23.7143C19.8483 27.2142 16.7143 24.0802 16.7143 20.2142V16.7142ZM15.7143 15.7142H16.7143H22C26.4183 15.7142 30 19.296 30 23.7142V27.2142V28.2142H29H23.7143C19.296 28.2142 15.7143 24.6325 15.7143 20.2142V16.7142V15.7142ZM9.78571 16.7142H13.2857V21.9999C13.2857 25.8659 10.1517 28.9999 6.28571 28.9999H2.78571V23.7142C2.78571 19.8482 5.91971 16.7142 9.78571 16.7142ZM1.78571 23.7142C1.78571 19.296 5.36743 15.7142 9.78571 15.7142H13.2857H14.2857V16.7142V21.9999C14.2857 26.4182 10.704 29.9999 6.28571 29.9999H2.78571H1.78571V28.9999V23.7142Z" fill="#DAA520"></path>
</svg>